<?xml version="1.0" standalone="no"?><!DOCTYPE svg PUBLIC "-//W3C//DTD SVG 1.1//EN" "http://www.w3.org/Graphics/SVG/1.1/DTD/svg11.dtd"><svg t="1563961806949" class="icon" viewBox="0 0 1024 1024" version="1.1" xmlns="http://www.w3.org/2000/svg" p-id="3539" xmlns:xlink="http://www.w3.org/1999/xlink" width="200" height="200"><defs><style type="text/css"></style></defs><path d="M980.831 851.77l-234.82-234.82c35.419-58.222 55.801-126.45 55.801-199.587 0-212.263-183.989-396.253-396.316-396.253-212.263 0-384.386 172.122-384.386 384.386 0 212.324 183.927 396.316 396.253 396.316 70.59 0 136.703-19.138 193.559-52.382l236.063 236.124c23.178 23.115 60.585 23.115 83.636 0l58.596-58.533c23.054-23.115 14.662-52.195-8.389-75.25zM139.421 405.493c0-146.957 119.118-266.137 266.074-266.137 147.017 0 278.005 130.987 278.005 278.003s-119.118 266.137-266.137 266.137-277.943-130.987-277.943-278.003z" p-id="3540"></path></svg>